<?xml version="1.0" standalone="no"?><!DOCTYPE svg PUBLIC "-//W3C//DTD SVG 1.1//EN" "http://www.w3.org/Graphics/SVG/1.1/DTD/svg11.dtd"><svg xmlns:xlink="http://www.w3.org/1999/xlink" version="1.1" style="font-family:'lucida grande', 'lucida sans unicode', arial, helvetica, sans-serif;font-size:12px;" xmlns="http://www.w3.org/2000/svg" width="600" height="400"><desc>Created with Highcharts 4.2.7</desc><defs><clipPath id="highcharts-9"><rect x="1" y="1" width="541" height="280"></rect></clipPath></defs><rect x="47" y="47" width="543" height="282" fill="#ffffff"></rect><path fill="rgb(255, 255, 255)" fill-opacity=" .5" d="M 47 329.5 L 590 329.5 590 282.5 47 282.5"></path><path fill="rgb(255, 255, 255)" fill-opacity=" .5" d="M 47 235.5 L 590 235.5 590 188.5 47 188.5"></path><path fill="rgb(255, 255, 255)" fill-opacity=" .5" d="M 47 141.5 L 590 141.5 590 94.5 47 94.5"></path><g class="highcharts-grid"></g><g class="highcharts-grid"><path fill="none" d="M 47 329.5 L 590 329.5" stroke="#C0C0C0" stroke-width="1" opacity="1"></path><path fill="none" d="M 47 282.5 L 590 282.5" stroke="#C0C0C0" stroke-width="1" opacity="1"></path><path fill="none" d="M 47 235.5 L 590 235.5" stroke="#C0C0C0" stroke-width="1" opacity="1"></path><path fill="none" d="M 47 188.5 L 590 188.5" stroke="#C0C0C0" stroke-width="1" opacity="1"></path><path fill="none" d="M 47 141.5 L 590 141.5" stroke="#C0C0C0" stroke-width="1" opacity="1"></path><path fill="none" d="M 47 94.5 L 590 94.5" stroke="#C0C0C0" stroke-width="1" opacity="1"></path><path fill="none" d="M 47 46.5 L 590 46.5" stroke="#C0C0C0" stroke-width="1" opacity="1"></path></g><rect x="47" y="47" width="543" height="282" stroke="#026FC1" stroke-width="2" fill="none"></rect><g class="highcharts-axis"><path fill="none" d="M 227.5 329 L 227.5 339" stroke="#C0D0E0" stroke-width="1" opacity="1"></path><path fill="none" d="M 408.5 329 L 408.5 339" stroke="#C0D0E0" stroke-width="1" opacity="1"></path><path fill="none" d="M 590.5 329 L 590.5 339" stroke="#C0D0E0" stroke-width="1" opacity="1"></path><path fill="none" d="M 46.5 329 L 46.5 339" stroke="#C0D0E0" stroke-width="1" opacity="1"></path><path fill="none" d="M 47 329.5 L 590 329.5" stroke="#C0D0E0" stroke-width="1"></path></g><g class="highcharts-axis"><path fill="none" d="M 47 329.5 L 37 329.5" stroke="#C0D0E0" stroke-width="1" opacity="1"></path><path fill="none" d="M 47 282.5 L 37 282.5" stroke="#C0D0E0" stroke-width="1" opacity="1"></path><path fill="none" d="M 47 235.5 L 37 235.5" stroke="#C0D0E0" stroke-width="1" opacity="1"></path><path fill="none" d="M 47 188.5 L 37 188.5" stroke="#C0D0E0" stroke-width="1" opacity="1"></path><path fill="none" d="M 47 141.5 L 37 141.5" stroke="#C0D0E0" stroke-width="1" opacity="1"></path><path fill="none" d="M 47 94.5 L 37 94.5" stroke="#C0D0E0" stroke-width="1" opacity="1"></path><path fill="none" d="M 47 46.5 L 37 46.5" stroke="#C0D0E0" stroke-width="1" opacity="1"></path></g><g class="highcharts-series-group"><g class="highcharts-series highcharts-series-0" transform="translate(47,47) scale(1 1)" clip-path="url(#highcharts-9)"><rect x="46.5" y="21.5" width="87" height="261" stroke="#FFFFFF" stroke-width="1" fill="#50B432" rx="0" ry="0"></rect><rect x="227.5" y="67.5" width="87" height="215" stroke="#FFFFFF" stroke-width="1" fill="#ED561B" rx="0" ry="0"></rect><rect x="408.5" y="184.5" width="87" height="98" stroke="#FFFFFF" stroke-width="1" fill="#DDDF00" rx="0" ry="0"></rect></g><g class="highcharts-markers highcharts-series-0" transform="translate(47,47) scale(1 1)" clip-path="none"></g><g class="highcharts-series highcharts-series-1" transform="translate(47,47) scale(1 1)" clip-path="url(#highcharts-9)"></g><g class="highcharts-markers highcharts-series-1" transform="translate(47,47) scale(1 1)" clip-path="none"></g></g><text x="300" text-anchor="middle" class="highcharts-title" style="color:#000000;font-size:10px;font-family:'arial', sans-serif;text-transform:none;fill:#000000;width:536px;" y="17"><tspan>Average Lambda cold-start runtimes  (seconds)</tspan></text><text x="300" text-anchor="middle" class="highcharts-subtitle" style="color:#000000;font-size:10px;font-family:'arial', sans-serif;text-transform:none;fill:#000000;width:536px;" y="33"><tspan>Lambda = s3 put + sqs create queue + sqs send message</tspan></text><g class="highcharts-data-labels highcharts-series-0" transform="translate(47,47) scale(1 1)" opacity="1"><g style="cursor:pointer;" transform="translate(72,1)"><text x="5" style="font-size:10px;font-weight:bold;font-family:'arial', sans-serif;color:#000000;text-shadow:none;fill:#000000;text-rendering:geometricprecision;" y="15"><tspan>2.772</tspan></text></g><g style="cursor:pointer;" transform="translate(253,47)"><text x="5" style="font-size:10px;font-weight:bold;font-family:'arial', sans-serif;color:#000000;text-shadow:none;fill:#000000;text-rendering:geometricprecision;" y="15"><tspan>2.289</tspan></text></g><g style="cursor:pointer;" transform="translate(437,164)"><text x="5" style="font-size:10px;font-weight:bold;font-family:'arial', sans-serif;color:#000000;text-shadow:none;fill:#000000;text-rendering:geometricprecision;" y="15"><tspan>1.04</tspan></text></g></g><g class="highcharts-data-labels highcharts-series-1" transform="translate(47,47) scale(1 1)" opacity="1"></g><g class="highcharts-legend" transform="translate(234,360)"><g><g><g class="highcharts-legend-item" transform="translate(8,3)"><text x="21" style="color:#333;font-size:9pt;font-weight:normal;cursor:pointer;font-family:'lucida grande','lucida sans unicode',arial,helvetica,sans-serif;text-transform:none;fill:#333;" text-anchor="start" y="15"><tspan>AWS client library</tspan></text><rect x="0" y="4" width="16" height="12" fill="#CCC"></rect></g></g></g></g><g class="highcharts-axis-labels highcharts-xaxis-labels"><text x="137.5" style="color:#000000;cursor:default;font-size:10px;font-family:'arial', sans-serif;text-transform:none;font-weight:normal;fill:#000000;" text-anchor="middle" transform="translate(0,0)" y="347" opacity="1"><tspan>AWS SDK v1</tspan></text><text x="318.5" style="color:#000000;cursor:default;font-size:10px;font-family:'arial', sans-serif;text-transform:none;font-weight:normal;fill:#000000;" text-anchor="middle" transform="translate(0,0)" y="347" opacity="1"><tspan>AWS SDK v2</tspan></text><text x="499.5" style="color:#000000;cursor:default;font-size:10px;font-family:'arial', sans-serif;text-transform:none;font-weight:normal;fill:#000000;" text-anchor="middle" transform="translate(0,0)" y="347" opacity="1">Lightweight</text></g><g class="highcharts-axis-labels highcharts-yaxis-labels"><text x="32" style="color:#000000;cursor:default;font-size:10px;font-family:'arial', sans-serif;text-transform:none;font-weight:normal;fill:#000000;width:188px;text-overflow:clip;" text-anchor="end" transform="translate(0,0)" y="334" opacity="1"><tspan>0 s</tspan></text><text x="32" style="color:#000000;cursor:default;font-size:10px;font-family:'arial', sans-serif;text-transform:none;font-weight:normal;fill:#000000;width:188px;text-overflow:clip;" text-anchor="end" transform="translate(0,0)" y="287" opacity="1"><tspan>0.5 s</tspan></text><text x="32" style="color:#000000;cursor:default;font-size:10px;font-family:'arial', sans-serif;text-transform:none;font-weight:normal;fill:#000000;width:188px;text-overflow:clip;" text-anchor="end" transform="translate(0,0)" y="240" opacity="1"><tspan>1 s</tspan></text><text x="32" style="color:#000000;cursor:default;font-size:10px;font-family:'arial', sans-serif;text-transform:none;font-weight:normal;fill:#000000;width:188px;text-overflow:clip;" text-anchor="end" transform="translate(0,0)" y="193" opacity="1"><tspan>1.5 s</tspan></text><text x="32" style="color:#000000;cursor:default;font-size:10px;font-family:'arial', sans-serif;text-transform:none;font-weight:normal;fill:#000000;width:188px;text-overflow:clip;" text-anchor="end" transform="translate(0,0)" y="146" opacity="1"><tspan>2 s</tspan></text><text x="32" style="color:#000000;cursor:default;font-size:10px;font-family:'arial', sans-serif;text-transform:none;font-weight:normal;fill:#000000;width:188px;text-overflow:clip;" text-anchor="end" transform="translate(0,0)" y="99" opacity="1"><tspan>2.5 s</tspan></text><text x="32" style="color:#000000;cursor:default;font-size:10px;font-family:'arial', sans-serif;text-transform:none;font-weight:normal;fill:#000000;width:188px;text-overflow:clip;" text-anchor="end" transform="translate(0,0)" y="52" opacity="1"><tspan>3 s</tspan></text></g><g class="highcharts-tooltip" display="none" style="cursor:default;padding:0;pointer-events:none;white-space:nowrap;" transform="translate(0,0)"><path fill="none" d="M 3.5 0.5 L 13.5 0.5 C 16.5 0.5 16.5 0.5 16.5 3.5 L 16.5 13.5 C 16.5 16.5 16.5 16.5 13.5 16.5 L 3.5 16.5 C 0.5 16.5 0.5 16.5 0.5 13.5 L 0.5 3.5 C 0.5 0.5 0.5 0.5 3.5 0.5"  stroke="black" stroke-opacity="0.049999999999999996" stroke-width="5" transform="translate(1, 1)"></path><path fill="none" d="M 3.5 0.5 L 13.5 0.5 C 16.5 0.5 16.5 0.5 16.5 3.5 L 16.5 13.5 C 16.5 16.5 16.5 16.5 13.5 16.5 L 3.5 16.5 C 0.5 16.5 0.5 16.5 0.5 13.5 L 0.5 3.5 C 0.5 0.5 0.5 0.5 3.5 0.5"  stroke="black" stroke-opacity="0.09999999999999999" stroke-width="3" transform="translate(1, 1)"></path><path fill="none" d="M 3.5 0.5 L 13.5 0.5 C 16.5 0.5 16.5 0.5 16.5 3.5 L 16.5 13.5 C 16.5 16.5 16.5 16.5 13.5 16.5 L 3.5 16.5 C 0.5 16.5 0.5 16.5 0.5 13.5 L 0.5 3.5 C 0.5 0.5 0.5 0.5 3.5 0.5"  stroke="black" stroke-opacity="0.15" stroke-width="1" transform="translate(1, 1)"></path><path fill="rgb(255, 255, 255)" fill-opacity=" 0.85" d="M 3.5 0.5 L 13.5 0.5 C 16.5 0.5 16.5 0.5 16.5 3.5 L 16.5 13.5 C 16.5 16.5 16.5 16.5 13.5 16.5 L 3.5 16.5 C 0.5 16.5 0.5 16.5 0.5 13.5 L 0.5 3.5 C 0.5 0.5 0.5 0.5 3.5 0.5"></path><text x="8" style="font-size:12px;color:#000000;fill:#000000;" y="20"></text></g><text x="590" text-anchor="end" style="cursor:pointer;color:#909090;font-size:9px;fill:#909090;" y="395">meta-chart.com</text></svg>