<?xml version="1.0" encoding="UTF-8" standalone="no"?><svg xmlns="http://www.w3.org/2000/svg" xmlns:xlink="http://www.w3.org/1999/xlink" contentScriptType="application/ecmascript" contentStyleType="text/css" height="409px" preserveAspectRatio="none" style="width:374px;height:409px;background:#FFFFFF;" version="1.1" viewBox="0 0 374 409" width="374px" zoomAndPan="magnify"><defs><filter height="300%" id="fmdl6nm81v7yk" width="300%" x="-1" y="-1"><feGaussianBlur result="blurOut" stdDeviation="2.0"/><feColorMatrix in="blurOut" result="blurOut2" type="matrix" values="0 0 0 0 0 0 0 0 0 0 0 0 0 0 0 0 0 0 .4 0"/><feOffset dx="4.0" dy="4.0" in="blurOut2" result="blurOut3"/><feBlend in="SourceGraphic" in2="blurOut3" mode="normal"/></filter></defs><g><text fill="#000000" font-family="sans-serif" font-size="18" lengthAdjust="spacing" textLength="298" x="31.5" y="16.708">Lambda instance State Diagram</text><ellipse cx="63" cy="36.9531" fill="#000000" filter="url(#fmdl6nm81v7yk)" rx="10" ry="10" style="stroke:none;stroke-width:1.0;"/><g id="VmAllocated"><rect fill="#FEFECE" filter="url(#fmdl6nm81v7yk)" height="50" rx="12.5" ry="12.5" style="stroke:#A80036;stroke-width:1.5;" width="112" x="7" y="107.9531"/><line style="stroke:#A80036;stroke-width:1.5;" x1="7" x2="119" y1="134.25" y2="134.25"/><text fill="#000000" font-family="sans-serif" font-size="14" lengthAdjust="spacing" textLength="92" x="17" y="125.9482">VmAllocated</text></g><g id="Cold"><rect fill="#FEFECE" filter="url(#fmdl6nm81v7yk)" height="50" rx="12.5" ry="12.5" style="stroke:#A80036;stroke-width:1.5;" width="52" x="37" y="218.9531"/><line style="stroke:#A80036;stroke-width:1.5;" x1="37" x2="89" y1="245.25" y2="245.25"/><text fill="#000000" font-family="sans-serif" font-size="14" lengthAdjust="spacing" textLength="32" x="47" y="236.9482">Cold</text></g><g id="Warm"><rect fill="#FEFECE" filter="url(#fmdl6nm81v7yk)" height="50" rx="12.5" ry="12.5" style="stroke:#A80036;stroke-width:1.5;" width="62" x="192" y="218.9531"/><line style="stroke:#A80036;stroke-width:1.5;" x1="192" x2="254" y1="245.25" y2="245.25"/><text fill="#000000" font-family="sans-serif" font-size="14" lengthAdjust="spacing" textLength="42" x="202" y="236.9482">Warm</text></g><g id="Lukewarm"><rect fill="#FEFECE" filter="url(#fmdl6nm81v7yk)" height="50" rx="12.5" ry="12.5" style="stroke:#A80036;stroke-width:1.5;" width="93" x="122.5" y="345.9531"/><line style="stroke:#A80036;stroke-width:1.5;" x1="122.5" x2="215.5" y1="372.25" y2="372.25"/><text fill="#000000" font-family="sans-serif" font-size="14" lengthAdjust="spacing" textLength="73" x="132.5" y="363.9482">Lukewarm</text></g><ellipse cx="331" cy="370.9531" filter="url(#fmdl6nm81v7yk)" rx="10" ry="10" style="stroke:#000000;stroke-width:1.0;fill:none;"/><ellipse cx="331.5" cy="371.4531" fill="#000000" rx="6" ry="6" style="stroke:none;stroke-width:1.0;"/><!--MD5=[dd0f14a57772708f0e806881ec0bea34]
link *start to VmAllocated--><path d="M63,46.9661 C63,59.6511 63,83.3621 63,102.5231 " fill="none" id="*start-to-VmAllocated" style="stroke:#A80036;stroke-width:1.0;"/><polygon fill="#A80036" points="63,107.7931,67,98.7931,63,102.7931,59,98.7931,63,107.7931" style="stroke:#A80036;stroke-width:1.0;"/><!--MD5=[0c050a005577400897a8f7967e74155a]
link VmAllocated to Cold--><path d="M63,158.1441 C63,174.5131 63,196.2321 63,213.5931 " fill="none" id="VmAllocated-to-Cold" style="stroke:#A80036;stroke-width:1.0;"/><polygon fill="#A80036" points="63,218.8301,67,209.8301,63,213.8301,59,209.8301,63,218.8301" style="stroke:#A80036;stroke-width:1.0;"/><!--MD5=[c62cb9325fd2bfa8214620dc1630d88f]
link Cold to Warm--><path d="M89.0629,243.9531 C115.598,243.9531 156.953,243.9531 186.69,243.9531 " fill="none" id="Cold-to-Warm" style="stroke:#A80036;stroke-width:1.0;"/><polygon fill="#A80036" points="191.73,243.9531,182.73,239.9531,186.73,243.9531,182.73,247.9531,191.73,243.9531" style="stroke:#A80036;stroke-width:1.0;"/><text fill="#000000" font-family="sans-serif" font-size="13" lengthAdjust="spacing" textLength="66" x="107.5" y="237.02">invocation</text><!--MD5=[8aa0548914942c987910d9d3510fb1ee]
link Warm to Warm--><path d="M254.235,234.3841 C272.24,232.4311 289,235.6211 289,243.9531 C289,251.5041 275.235,254.8311 259.253,253.9351 " fill="none" id="Warm-to-Warm" style="stroke:#A80036;stroke-width:1.0;"/><polygon fill="#A80036" points="254.235,253.5221,262.8753,258.2492,259.218,253.9336,263.5336,250.2763,254.235,253.5221" style="stroke:#A80036;stroke-width:1.0;"/><text fill="#000000" font-family="sans-serif" font-size="13" lengthAdjust="spacing" textLength="66" x="295" y="248.52">invocation</text><!--MD5=[3edc490978e7e65f506956acea5b6f40]
link Warm to Lukewarm--><path d="M191.853,251.4411 C151.185,260.6161 83.4619,278.5571 69,298.9531 C51.3929,323.7852 84.641,343.0255 117.433,355.1748 " fill="none" id="Warm-to-Lukewarm" style="stroke:#A80036;stroke-width:1.0;"/><polygon fill="#A80036" points="122.262,356.9157,115.1519,350.1005,117.5583,355.22,112.4388,357.6264,122.262,356.9157" style="stroke:#A80036;stroke-width:1.0;"/><text fill="#000000" font-family="sans-serif" font-size="13" lengthAdjust="spacing" textLength="114" x="70" y="312.02">reclaimResources</text><!--MD5=[d60766e44b5bfc0c45ae848091742486]
link Lukewarm to Warm--><path d="M179.38,345.9258 C188.26,325.3693 201.067,295.7251 210.507,273.8721 " fill="none" id="Lukewarm-to-Warm" style="stroke:#A80036;stroke-width:1.0;"/><polygon fill="#A80036" points="212.588,269.0541,205.3468,275.7299,210.6051,273.6441,212.6909,278.9024,212.588,269.0541" style="stroke:#A80036;stroke-width:1.0;"/><text fill="#000000" font-family="sans-serif" font-size="13" lengthAdjust="spacing" textLength="66" x="201" y="312.02">invocation</text><!--MD5=[598b859c88a5105cb134c0614bbe4311]
link Warm to *end--><path d="M247.898,269.1071 C256.986,278.2351 267.19,288.8581 276,298.9531 C293.468,318.9674 312.046,343.7894 322.52,358.1549 " fill="none" id="Warm-to-*end" style="stroke:#A80036;stroke-width:1.0;"/><polygon fill="#A80036" points="325.5,362.2605,323.4513,352.6271,322.5633,358.2138,316.9766,357.3258,325.5,362.2605" style="stroke:#A80036;stroke-width:1.0;"/><text fill="#000000" font-family="sans-serif" font-size="13" lengthAdjust="spacing" textLength="69" x="291" y="312.02">reclaimVm</text><!--MD5=[e08af05dd6c96d2773747a6a20691cb9]
link Lukewarm to *end--><path d="M215.857,370.9531 C249.597,370.9531 293.01,370.9531 315.675,370.9531 " fill="none" id="Lukewarm-to-*end" style="stroke:#A80036;stroke-width:1.0;"/><polygon fill="#A80036" points="320.711,370.9531,311.711,366.9531,315.711,370.9531,311.711,374.9531,320.711,370.9531" style="stroke:#A80036;stroke-width:1.0;"/><text fill="#000000" font-family="sans-serif" font-size="13" lengthAdjust="spacing" textLength="69" x="233.75" y="364.02">reclaimVm</text><!--MD5=[203d4b680ee4637f11bb07755578dfe5]
@startuml
title Lambda instance State Diagram
[*] - -> VmAllocated
VmAllocated -down-> Cold
Cold -> Warm: invocation
Warm -> Warm: invocation
Warm -down-> Lukewarm: reclaimResources
Lukewarm -> Warm: invocation
Warm -> [*]: reclaimVm
Lukewarm -> [*]: reclaimVm
@enduml

PlantUML version 1.2021.7(Sun May 23 12:40:07 UTC 2021)
(GPL source distribution)
Java Runtime: Java(TM) SE Runtime Environment
JVM: Java HotSpot(TM) 64-Bit Server VM
Default Encoding: UTF-8
Language: en
Country: US
--></g></svg>